# Blender v2.78 (sub 0) OBJ File: ''
# www.blender.org
o CornerWall_Cube.006
v 1.000000 2.000000 -1.000000
v 1.000000 -0.000000 -0.750000
v 1.000000 -0.000000 -1.000000
v -1.000000 2.000000 -1.000000
v -1.000000 0.000000 -1.000000
v -0.750000 2.000000 1.000000
v -1.000000 0.000000 1.000000
v -0.750000 0.000000 1.000000
v -0.750000 2.000000 -0.750000
v -0.750000 0.000000 -0.750000
v 1.000000 2.000000 -0.750000
v -1.000000 2.000000 1.000000
vt 0.6087 0.3333
vt 0.6522 0.6667
vt 0.6087 0.6667
vt 0.0000 0.3333
vt 0.3478 0.0000
vt 0.3478 0.3333
vt 0.6522 0.3333
vt 0.6957 0.6667
vt 0.6522 0.6667
vt 0.6957 0.3333
vt 1.0000 0.6667
vt 0.6957 0.6667
vt 0.6957 0.0000
vt 1.0000 0.3333
vt 0.6957 0.3333
vt 0.3478 0.3333
vt 0.6957 0.0000
vt 0.6957 0.3333
vt 0.3478 0.6667
vt 0.3043 0.6667
vt 0.3043 0.3750
vt 0.3043 0.7083
vt 0.0000 0.6667
vt 0.3478 0.6667
vt 0.6522 0.3333
vt 0.0000 0.0000
vt 0.6957 0.3333
vt 1.0000 0.3333
vt 1.0000 0.0000
vt 0.3478 0.0000
vt 0.0000 0.3750
vt 0.0000 0.3333
vt 0.3478 0.3333
vt 0.3478 1.0000
vt 0.3043 1.0000
vt 0.0000 0.7083
vn 1.0000 -0.0000 0.0000
vn -0.0000 0.0000 -1.0000
vn 0.0000 0.0000 1.0000
vn -1.0000 0.0000 0.0000
vn 0.0000 1.0000 0.0000
vn -0.0000 -1.0000 -0.0000
s 1
f 1/1/1 2/2/1 3/3/1
f 4/4/2 3/5/2 5/6/2
f 6/7/3 7/8/3 8/9/3
f 9/10/1 8/11/1 10/12/1
f 11/13/3 10/14/3 2/15/3
f 7/16/4 4/17/4 5/18/4
f 12/19/5 6/20/5 9/21/5
f 10/22/6 7/23/6 5/24/6
f 1/1/1 11/25/1 2/2/1
f 4/4/2 1/26/2 3/5/2
f 6/7/3 12/27/3 7/8/3
f 9/10/1 6/28/1 8/11/1
f 11/13/3 9/29/3 10/14/3
f 7/16/4 12/30/4 4/17/4
f 11/31/5 1/32/5 9/21/5
f 4/33/5 12/19/5 9/21/5
f 9/21/5 1/32/5 4/33/5
f 3/34/6 2/35/6 10/22/6
f 10/22/6 8/36/6 7/23/6
f 5/24/6 3/34/6 10/22/6
